<svg width="98" height="82" viewBox="0 0 98 82" fill="none" xmlns="http://www.w3.org/2000/svg">
  <path fill-rule="evenodd" clip-rule="evenodd" d="M42.6887 80.404L42.6943 80.3967L42.8813 80.2894L96.2846 33.1762L96.4188 32.9998C97.4726 31.6139 97.8723 30.009 97.3013 28.4319C96.8006 27.0475 95.7013 26.142 94.8618 25.5965C94.0716 25.1001 93.229 24.693 92.3498 24.3826C91.9754 24.2497 91.596 24.1315 91.2125 24.0283L91.1502 24.01L10.7151 0.901046L10.6909 0.894277C10.4536 0.814522 10.2118 0.748885 9.96697 0.697715C9.37598 0.55828 8.77454 0.469755 8.16934 0.433124C6.95709 0.369986 4.46524 0.494178 3.17852 2.71827C2.11 4.56292 2.46933 6.51862 2.83837 7.67527C3.05904 8.35423 3.35483 9.00724 3.72022 9.62216L3.79994 9.76401L3.82869 9.80327L3.84631 9.83407L11.9606 21.7187C11.412 22.3632 10.9561 23.1014 10.621 23.9199L0.523309 48.4929C-0.0264567 49.8329 -0.139814 51.3151 0.199159 52.7314C0.538133 54.1477 1.31241 55.4269 2.41325 56.3894C3.51409 57.352 4.8862 57.9494 6.33686 58.0979C7.78753 58.2464 9.24388 57.9384 10.5014 57.2172L25.8367 54.6872L32.0103 76.856L32.1512 77.1024C33.0411 78.6841 34.1409 79.8047 35.3884 80.5153C36.6386 81.2223 37.8952 81.4352 38.9765 81.4162C40.2354 81.3833 41.4664 81.0578 42.5715 80.4657L42.6487 80.4258L42.6766 80.4122L42.6887 80.404ZM17.0743 26.6107C17.1865 26.3381 17.3832 26.1092 17.6359 25.9571C17.8886 25.8049 18.1841 25.7376 18.4796 25.7647L72.9381 30.6241C72.9381 30.6241 76.0995 30.9684 75.0292 32.2141C75.0292 32.2141 75.2421 32.7357 73.2662 32.9215C71.3925 33.1038 27.9451 38.0154 23.5467 38.5116C23.3015 38.54 23.0703 38.638 22.8806 38.7941L6.97665 51.1838L17.0771 26.607L17.0743 26.6107Z" fill="url(#paint0_linear_1_77)" fill-opacity="0.3"/>
  <defs>
  <linearGradient id="paint0_linear_1_77" x1="62.5802" y1="1.01996" x2="13.8498" y2="65.1064" gradientUnits="userSpaceOnUse">
  <stop stop-color="#E2FD6A"/>
  <stop offset="1" stop-color="#ACD108"/>
  </linearGradient>
  </defs>
</svg>
