<svg width="204" height="188" viewBox="0 0 204 188" fill="none" xmlns="http://www.w3.org/2000/svg">
<path fill-rule="evenodd" clip-rule="evenodd" d="M60.3874 171.406L60.383 171.389L60.1398 171.073L2.43031 52.6038L2.32664 52.207C1.51238 49.0899 1.9713 46.0642 4.06863 43.7764C5.9087 41.7677 8.43066 41.0029 10.2529 40.6682C11.9559 40.3825 13.6848 40.2863 15.4073 40.3816C16.1416 40.4208 16.8738 40.4888 17.6023 40.5855L17.7217 40.5984L171.562 58.3426L171.608 58.3483C172.07 58.3809 172.529 58.4407 172.984 58.5275C174.093 58.7097 175.183 58.9863 176.243 59.3543C178.359 60.1088 182.527 62.0936 183.143 66.8081C183.656 70.7193 181.651 73.8045 180.198 75.5178C179.338 76.5206 178.368 77.4257 177.306 78.2162L177.069 78.4017L176.992 78.4484L176.94 78.4885L154.625 93.0176C155.104 94.5089 155.357 96.0943 155.347 97.7308L155.116 146.89C155.102 149.57 154.241 152.183 152.654 154.361C151.068 156.539 148.835 158.174 146.27 159.035C143.705 159.896 140.936 159.94 138.352 159.162C135.769 158.384 133.5 156.821 131.865 154.695L107.469 139.464L81.1524 172.941L80.7364 173.262C78.0911 175.331 75.4152 176.463 72.7788 176.789C70.1402 177.108 67.8421 176.577 66.0085 175.776C63.8815 174.824 62.0103 173.392 60.5438 171.595L60.4402 171.472L60.4022 171.429L60.3874 171.406ZM142.409 97.7366C142.412 97.1912 142.239 96.6601 141.915 96.2205C141.592 95.7809 141.135 95.4556 140.611 95.2918L44.1269 64.8523C44.1269 64.8523 38.4816 63.1915 39.4237 66.0809C39.4237 66.0809 38.6889 66.8204 41.9321 68.5434C45.0031 70.1878 115.727 109.485 122.887 113.462C123.286 113.685 123.611 114.016 123.824 114.418L142.178 146.896L142.407 97.7283L142.409 97.7366Z" fill="url(#paint0_linear_2001_27)" fill-opacity="0.3"/>
<path d="M89.3774 174.96C90.9013 172.879 91.9438 170.47 93.2685 168.262C95.1384 165.145 97.5641 162.484 100.024 159.83C101.634 158.092 103.077 156.108 104.772 154.459C104.837 154.396 104.934 154.244 104.998 154.309C105.285 154.596 104.918 155.118 104.829 155.514C104.418 157.338 103.887 159.136 103.34 160.922C101.613 166.565 99.1992 171.796 96.7922 177.165C95.5916 179.843 99.6671 172.044 101.249 169.571C101.435 169.281 104.924 163.802 105.413 164.314C105.591 164.501 105.49 164.828 105.488 165.087C105.479 166.694 105.36 168.304 105.187 169.901C104.759 173.851 104.068 177.792 103.076 181.64C102.769 182.833 102.663 183.004 103.171 181.782C104.125 179.481 105.244 177.231 106.27 174.96C108.263 170.551 111.115 166.615 113.12 162.241" stroke="#E2FD6A" stroke-opacity="0.5" stroke-width="3" stroke-linecap="round"/>
<path d="M34.7349 133.309L12.5619 91.179" stroke="#E2FD6A" stroke-opacity="0.5" stroke-width="3" stroke-linecap="round"/>
<path d="M22.2917 123.055L7.00005 94" stroke="#E2FD6A" stroke-opacity="0.5" stroke-width="3" stroke-linecap="round"/>
<path d="M23.4175 137.794L13 118" stroke="#E2FD6A" stroke-opacity="0.5" stroke-width="3" stroke-linecap="round"/>
<defs>
<linearGradient id="paint0_linear_2001_27" x1="82.8801" y1="21.6504" x2="120.533" y2="165.789" gradientUnits="userSpaceOnUse">
<stop stop-color="#7ACBFD"/>
<stop offset="1" stop-color="#29AEFF"/>
</linearGradient>
</defs>
</svg>
